<?xml version="1.0" encoding="UTF-8" standalone="no"?>
<!-- Created with Inkscape (http://www.inkscape.org/) -->

<svg
   width="107.63683mm"
   height="38.483955mm"
   viewBox="0 0 107.63683 38.483955"
   version="1.1"
   id="svg1"
   xml:space="preserve"
   xmlns="http://www.w3.org/2000/svg"
   xmlns:svg="http://www.w3.org/2000/svg"><defs
     id="defs1" /><g
     id="layer1"
     transform="translate(-34.825108,-19.741431)"><path
       id="text24"
       style="font-size:42.477px;line-height:0.889px;font-family:Akrobat;-inkscape-font-specification:'Akrobat, Normal';font-variant-ligatures:none;letter-spacing:0px;fill:#008080;stroke-width:0.264583"
       d="m 34.825109,19.741431 v 38.483956 h 5.946924 V 19.741431 Z m 40.607857,0 V 58.225387 H 81.37989 V 19.741431 Z m 9.599931,0 v 38.483956 h 5.946924 V 19.741431 Z m 28.714523,0 v 38.483956 h 5.94693 V 19.741431 Z m 22.76761,0 v 38.483956 h 5.94692 V 19.741431 Z m -71.78632,4.502567 v 21.578011 h 5.8198 V 24.243998 Z m 34.895027,6.881234 -5.776908,15.716353 h 5.352128 l 3.185853,-9.68468 3.14348,9.68468 h 5.35212 l -5.7769,-15.716353 z m 23.171193,5.394503 v 4.927348 h 10.61951 v -4.927348 z m -78.497531,4.672583 v 5.352128 l 9.68468,3.14296 -9.68468,3.185852 v 5.352129 l 15.716353,-5.776909 v -5.479252 z m 23.362398,6.923608 c -0.962812,0 -1.741613,0.297257 -2.336291,0.891935 -0.56636,0.56636 -0.849561,1.331105 -0.849561,2.293917 0,0.962812 0.283201,1.741614 0.849561,2.336292 0.594678,0.56636 1.373479,0.84956 2.336291,0.84956 0.962812,0 1.727557,-0.2832 2.293917,-0.84956 0.594678,-0.594678 0.891935,-1.37348 0.891935,-2.336292 0,-0.962812 -0.297257,-1.727557 -0.891935,-2.293917 -0.56636,-0.594678 -1.331105,-0.891935 -2.293917,-0.891935 z" /></g></svg>
