<?xml version="1.0" encoding="UTF-8" standalone="no"?>
<!-- Created with Inkscape (http://www.inkscape.org/) -->

<svg
   width="44.978924cm"
   height="4.3114161cm"
   viewBox="0 0 449.78924 43.114161"
   version="1.1"
   id="svg1"
   xml:space="preserve"
   xmlns="http://www.w3.org/2000/svg"
   xmlns:svg="http://www.w3.org/2000/svg"><defs
     id="defs1" /><path
     d="M 15.334195,0.74335639 V 5.4158264 q -1.29555,0 -2.23004,0.23362 -0.91326,0.21239 -1.3805,0.80707 -0.44601,0.57344 -0.33982,1.6566 l 0.65839,6.2653606 q 0.25487,2.37871 -0.53096,3.84417 -0.76458,1.46545 -2.3574698,2.25128 -1.57165,0.76458 -3.71674,1.08316 2.27252,0.33982 3.84417,1.1044 1.5716498,0.76459 2.2937598,2.20881 0.72211,1.44422 0.46724,3.8654 l -0.65839,6.26536 q -0.10619,1.06193 0.33982,1.65661 0.46724,0.59467 1.40174,0.80706 0.93449,0.23362 2.2088,0.23362 v 4.67247 q -2.93091,0 -4.96981,-0.42477 -2.0388898,-0.42477 -3.2707298,-1.35926 -1.21059,-0.91326 -1.67784,-2.42119 -0.44601,-1.4867 -0.23362,-3.63178 l 0.63715,-6.07422 q 0.16991,-1.61412 -0.5522,-2.52738 -0.70087,-0.91325 -2.08137,-1.27431 -1.3805,-0.38229 -3.1857800142877,-0.38229 v -5.43706 Q 1.7840352,18.838557 3.1645352,18.477507 q 1.3805,-0.38229 2.10261,-1.29555 0.72211,-0.91326 0.5522,-2.52738 l -0.63715,-6.0317406 q -0.23363,-2.18756 0.21238,-3.69549 0.46725,-1.50794 1.67784,-2.42119 1.23184,-0.9345 3.2707298,-1.33803 2.06014,-0.42477001 4.99105,-0.42477001 z M 32.070155,21.557087 q 0,2.63358 0.40353,4.86362 0.40353,2.2088 1.33802,4.29018 0.9345,2.08137 2.48491,4.2477 1.55041,2.14508 3.84417,4.62999 l -3.90789,3.52559 q -3.35568,-2.88844 -5.81935,-6.09545 -2.46366,-3.20701 -3.80169,-7.00871 -1.33802,-3.80169 -1.33802,-8.45292 0,-4.65123 1.33802,-8.45292 1.33803,-3.8016906 3.80169,-7.0087106 2.46367,-3.20701 5.81935,-6.0954500098613 L 40.140785,3.5255964 q -2.14509,2.33624 -3.67426,4.48133 -1.52918,2.1238506 -2.50615,4.2477006 -0.97697,2.12385 -1.44421,4.39637 -0.44601,2.27252 -0.44601,4.90609 z m 28.8419,0 q 0,-2.63357 -0.46725,-4.90609 -0.44601,-2.27252 -1.42298,-4.39637 -0.97697,-2.12385 -2.50614,-4.2477006 -1.52917,-2.14509 -3.67426,-4.48133 L 56.749305,6.3901388e-6 Q 60.104985,2.8884464 62.568655,6.0954564 q 2.46367,3.20702 3.80169,7.0087106 1.33803,3.80169 1.33803,8.45292 0,4.65123 -1.33803,8.45292 -1.33802,3.8017 -3.80169,7.00871 -2.46367,3.20701 -5.81935,6.09545 l -3.90788,-3.52559 q 2.29375,-2.48491 3.84417,-4.62999 1.55041,-2.16633 2.4849,-4.2477 0.93449,-2.08138 1.33803,-4.29018 0.40353,-2.23004 0.40353,-4.86362 z m 58.936875,-5.43705 v 5.2459 h -19.28456 v -5.2459 z m 0,8.9414 v 5.20344 h -19.28456 v -5.20344 z m 9.02638,-14.65456 16.60851,10.27943 v 4.7999 l -16.54479,10.27944 -3.03711,-4.56628 13.80503,-8.11311 -13.80503,-7.85824 z m 54.73165,5.77687 q 1.06192,-1.40174 2.54862,-2.23004 1.50793,-0.8283 3.22825,-0.8283 2.90967,0 4.73618,1.46545 1.84775,1.46546 2.71853,4.14151 0.87078,2.67605 0.87078,6.35031 0,3.48312 -1.04069,6.22288 -1.01944,2.71853 -3.0371,4.29018 -2.01766,1.55041 -4.94857,1.55041 -3.54683,0 -5.58573,-2.761 l -0.25486,2.03889 h -5.94678 V 4.9061064 l 6.71137,-0.70087 z m 3.3132,16.07755 q 1.78404,0 2.82472,-1.63537 1.04069,-1.6566 1.04069,-5.45829 0,-2.80349 -0.44601,-4.33266 -0.42477,-1.55041 -1.23183,-2.14509 -0.78583,-0.61591 -1.84775,-0.61591 -1.12564,0 -2.01766,0.70087 -0.89202,0.70087 -1.63536,1.91146 v 9.51485 q 0.63715,0.99821 1.42297,1.52917 0.78583,0.53097 1.89023,0.53097 z m 29.24544,-18.39255 v 17.96778 h 5.73439 v 4.58751 h -18.83855 v -4.58751 h 6.39279 v -13.38026 h -6.1804 v -4.58752 z M 212.10904,2.0601464 q 1.74156,0 2.84596,1.08316 1.1044,1.08316 1.1044,2.69729 0,1.61413 -1.1044,2.71853 -1.1044,1.08316 -2.84596,1.08316 -1.76279,0 -2.88843,-1.08316 -1.1044,-1.1044 -1.1044,-2.71853 0,-1.61413 1.1044,-2.69729 1.12564,-1.08316 2.88843,-1.08316 z m 27.52512,2.84596 V 29.330377 q 0,1.35927 0.76459,1.95394 0.78582,0.57344 2.14509,0.57344 0.87077,0 1.67784,-0.19114 0.80706,-0.21239 1.50793,-0.48849 l 1.61413,4.48133 q -1.14688,0.59467 -2.76101,1.04068 -1.61412,0.44601 -3.75921,0.44601 -4.0778,0 -5.98926,-2.33623 -1.91147,-2.35748 -1.91147,-6.30784 V 9.4936164 h -6.64765 v -4.58751 z m 25.48622,0 V 29.330377 q 0,1.35927 0.76459,1.95394 0.78582,0.57344 2.14509,0.57344 0.87078,0 1.67784,-0.19114 0.80706,-0.21239 1.50793,-0.48849 l 1.61413,4.48133 q -1.14688,0.59467 -2.76101,1.04068 -1.61412,0.44601 -3.75921,0.44601 -4.07779,0 -5.98926,-2.33623 -1.91146,-2.35748 -1.91146,-6.30784 V 9.4936164 h -6.64765 v -4.58751 z m 32.7073,25.0189506 q 0,1.27431 0.33981,1.84775 0.36106,0.57344 1.14688,0.87078 l -1.3805,4.41761 q -1.99642,-0.19115 -3.37692,-0.87078 -1.35926,-0.70087 -2.14509,-2.10261 -1.29555,1.55041 -3.31321,2.31499 -2.01765,0.74335 -4.12026,0.74335 -3.48312,0 -5.56449,-1.97518 -2.06014,-1.99642 -2.06014,-5.11848 0,-3.67426 2.8672,-5.67068 2.88844,-1.99642 8.11311,-1.99642 h 3.0371 v -0.84954 q 0,-1.76279 -1.14687,-2.61233 -1.12565,-0.84954 -3.31321,-0.84954 -1.08316,0 -2.78224,0.31857 -1.69908,0.29734 -3.39816,0.87078 l -1.55042,-4.46008 q 2.18757,-0.8283 4.54504,-1.25307 2.37872,-0.42477 4.2477,-0.42477 5.03353,0 7.43348,2.06013 2.42119,2.0389 2.42119,5.9043 z m -10.5343,2.42119 q 1.08317,0 2.27252,-0.63716 1.18936,-0.65839 1.80527,-1.84774 v -3.65303 h -1.6566 q -2.80348,0 -4.12027,0.87078 -1.31678,0.84954 -1.31678,2.50614 0,1.29555 0.78582,2.0389 0.80706,0.72211 2.23004,0.72211 z M 311.03803,4.2477064 V 16.098797 q 1.42298,-1.50794 3.07958,-2.23005 1.67785,-0.74334 3.54683,-0.74334 3.01587,0 4.60876,1.76279 1.59289,1.7628 1.59289,4.96981 v 16.56603 h -6.71137 v -14.69704 q 0,-2.0389 -0.46725,-2.84596 -0.44601,-0.80706 -1.69908,-0.80706 -0.70087,0 -1.3805,0.33981 -0.65839,0.31858 -1.29555,0.9345 -0.63715,0.61591 -1.27431,1.46545 v 15.6103 h -6.71136 V 4.9061064 Z m 23.8084,28.1622606 q 0,-1.29555 0.63715,-2.35748 0.63716,-1.08316 1.72032,-1.72032 1.08316,-0.65839 2.37871,-0.65839 1.31679,0 2.37871,0.65839 1.08317,0.63716 1.72032,1.72032 0.63716,1.06193 0.63716,2.35748 0,1.27431 -0.63716,2.35747 -0.63715,1.08316 -1.72032,1.72032 -1.06192,0.65839 -2.37871,0.65839 -1.29555,0 -2.37871,-0.65839 -1.08316,-0.63716 -1.72032,-1.72032 -0.63715,-1.08316 -0.63715,-2.35747 z m 33.28073,-28.2047306 6.71137,0.70087 V 36.424037 h -5.94678 l -0.33982,-2.4849 q -0.93449,1.31678 -2.4849,2.27252 -1.55041,0.93449 -3.75922,0.93449 -2.80348,0 -4.65123,-1.50793 -1.82651,-1.50794 -2.73977,-4.20523 -0.89201,-2.71852 -0.89201,-6.35031 0,-3.48311 1.08316,-6.1804 1.08316,-2.69729 3.10082,-4.22646 2.01766,-1.55041 4.7999,-1.55041 1.50794,0 2.80349,0.53096 1.29554,0.53096 2.31499,1.55041 z m -3.3132,13.8262606 q -1.74156,0 -2.80349,1.6566 -1.06192,1.63537 -1.06192,5.43706 0,2.78224 0.44601,4.33265 0.44601,1.52918 1.23183,2.14509 0.78582,0.61592 1.80527,0.61592 1.12564,0 2.0389,-0.70087 0.93449,-0.70087 1.6566,-1.91147 v -9.72723 q -0.70087,-0.87078 -1.48669,-1.35926 -0.78583,-0.48849 -1.82651,-0.48849 z m 21.79073,9.06884 q 0.23363,1.84775 0.95574,2.99463 0.74334,1.12564 1.89022,1.6566 1.14688,0.50973 2.56986,0.50973 1.55041,0 2.99463,-0.50973 1.44422,-0.50972 2.78224,-1.35926 l 2.69729,3.65302 q -1.59288,1.35926 -3.8654,2.23004 -2.25129,0.87078 -5.13972,0.87078 -3.86541,0 -6.47774,-1.52917 -2.61234,-1.55041 -3.92913,-4.2477 -1.31678,-2.69729 -1.31678,-6.20164 0,-3.33445 1.27431,-6.05298 1.27431,-2.73976 3.71673,-4.35389 2.46367,-1.63536 6.0105,-1.63536 3.22825,0 5.58573,1.3805 2.37871,1.3805 3.67426,3.9716 1.31678,2.5911 1.31678,6.22288 0,0.57344 -0.0425,1.23183 -0.0212,0.6584 -0.085,1.16812 z m 4.16275,-9.47237 q -1.80527,0 -2.90968,1.29555 -1.1044,1.29555 -1.33802,4.1415 h 8.28301 q -0.0212,-2.46366 -0.95573,-3.95036 -0.93449,-1.48669 -3.07958,-1.48669 z m 36.78509,-3.75922 -7.51843,22.55529 h -7.90072 l -7.60339,-22.55529 h 7.24233 l 4.39637,17.41557 4.58752,-17.41557 z m 6.90252,-13.12539061 q 2.93091,0 4.96981,0.42477001 2.03889,0.42477 3.24949,1.35926 1.23183,0.91326 1.69908,2.42119 0.46724,1.4867 0.23362,3.63179 l -0.63716,6.0742106 q -0.1699,1.61412 0.55221,2.52738 0.7221,0.91326 2.08137,1.29555 1.3805,0.36105 3.18577,0.36105 v 5.43706 q -1.78403,0 -3.16453,0.38229 -1.38051,0.36106 -2.10261,1.27431 -0.72211,0.91326 -0.55221,2.52738 l 0.63716,6.03174 q 0.23362,2.18756 -0.23362,3.6955 -0.44601,1.50793 -1.67785,2.42119 -1.21059,0.93449 -3.27072,1.33802 -2.0389,0.42477 -4.96981,0.42477 v -4.67247 q 1.29554,0 2.2088,-0.23362 0.93449,-0.21239 1.3805,-0.80706 0.46725,-0.59468 0.36106,-1.65661 l -0.6584,-6.26536 q -0.25486,-2.39995 0.50973,-3.84416 0.78582,-1.46546 2.37871,-2.23005 1.59289,-0.78582 3.73798,-1.1044 -2.27252,-0.33981 -3.86541,-1.1044 -1.57165,-0.76459 -2.29376,-2.2088 -0.72211,-1.46546 -0.46725,-3.86541 l 0.6584,-6.2653606 q 0.10619,-1.08316 -0.36106,-1.6566 -0.44601,-0.59468 -1.3805,-0.80707 -0.91326,-0.23362 -2.2088,-0.23362 z"
     id="path5"
     style="-inkscape-font-specification:'Fira Code Bold';fill:#0000ff;stroke-width:0.264583"
     aria-label="{() =&gt; billah.dev}" /></svg>
